<svg xmlns="http://www.w3.org/2000/svg" width="400" height="400" viewBox="0 0 400 400"><g><path fill="#DD4814" d="M400 200c0 110.447-89.54 200-200 200S0 310.447 0 200C0 89.542 89.547 0 200 0c110.46 0 200 89.542 200 200z"/><g fill="#fff"><path d="M64.006 173.284c-14.753 0-26.703 11.962-26.703 26.716 0 14.744 11.95 26.697 26.703 26.697 14.744 0 26.7-11.953 26.7-26.697 0-14.755-11.956-26.716-26.7-26.716zM254.654 294.65c-12.766 7.38-17.147 23.7-9.766 36.466 7.367 12.768 23.684 17.157 36.457 9.78 12.77-7.378 17.15-23.706 9.777-36.48-7.373-12.753-23.7-17.128-36.468-9.765zM122.007 200c0-26.384 13.106-49.696 33.165-63.817L135.65 103.48C112.284 119.1 94.9 142.97 87.68 170.9c8.43 6.89 13.823 17.362 13.823 29.1 0 11.72-5.394 22.193-13.824 29.085 7.218 27.947 24.602 51.81 47.97 67.436l19.522-32.714c-20.06-14.11-33.165-37.408-33.165-63.806zM200 121.995c40.75 0 74.176 31.24 77.687 71.085l38.053-.558c-1.876-29.42-14.724-55.823-34.47-75.235-10.153 3.826-21.88 3.25-32.015-2.603-10.156-5.86-16.522-15.74-18.263-26.476-9.87-2.717-20.252-4.198-30.992-4.198-18.456 0-35.914 4.327-51.408 11.997l18.552 33.248c9.99-4.646 21.118-7.26 32.856-7.26zM200 277.99c-11.738 0-22.867-2.608-32.85-7.25l-18.557 33.242c15.498 7.68 32.952 12.025 51.408 12.025 10.74 0 21.13-1.498 30.992-4.232 1.74-10.723 8.11-20.603 18.263-26.47 10.144-5.852 21.863-6.435 32.016-2.607 19.746-19.414 32.593-45.817 34.47-75.234l-38.07-.552c-3.494 39.848-36.92 71.08-77.67 71.08zM254.648 105.335c12.773 7.363 29.098 3.003 36.464-9.766 7.382-12.777 3.01-29.09-9.766-36.468-12.773-7.38-29.09-3.005-36.472 9.768-7.367 12.77-2.986 29.09 9.774 36.465z"/></g></g></svg>